<?xml version="1.0" encoding="UTF-8" standalone="no"?>
<!DOCTYPE svg PUBLIC "-//W3C//DTD SVG 1.1//EN" "http://www.w3.org/Graphics/SVG/1.1/DTD/svg11.dtd">
<svg width="100%" height="100%" viewBox="0 0 145 145" version="1.1" xmlns="http://www.w3.org/2000/svg" xmlns:xlink="http://www.w3.org/1999/xlink" xml:space="preserve" xmlns:serif="http://www.serif.com/" style="fill-rule:evenodd;clip-rule:evenodd;stroke-linejoin:round;stroke-miterlimit:2;">
    <g transform="matrix(1,0,0,1,-112.787,-671.256)">
        <g transform="matrix(1,0,0,1,-66.0452,240.593)">
            <path d="M262.049,491.723L262.049,436.073C262.049,433.085 259.627,430.663 256.639,430.663C253.194,430.663 248.748,430.663 245.303,430.663C242.314,430.663 239.892,433.085 239.892,436.073C239.892,451.01 239.892,491.723 239.892,491.723L184.242,491.723C181.254,491.723 178.832,494.146 178.832,497.134C178.832,500.579 178.832,505.025 178.832,508.47C178.832,511.458 181.254,513.88 184.242,513.88C199.179,513.88 239.892,513.88 239.892,513.88L239.892,569.53C239.892,572.518 242.314,574.941 245.303,574.941C248.748,574.941 253.194,574.941 256.639,574.941C259.627,574.941 262.049,572.518 262.049,569.53C262.049,554.593 262.049,513.88 262.049,513.88L317.699,513.88C320.687,513.88 323.11,511.458 323.11,508.47C323.11,505.025 323.11,500.579 323.11,497.134C323.11,494.146 320.687,491.723 317.699,491.723C302.762,491.723 262.049,491.723 262.049,491.723Z"/>
        </g>
    </g>
</svg>
