<?xml version="1.0" encoding="UTF-8" standalone="no"?>
<!DOCTYPE svg PUBLIC "-//W3C//DTD SVG 1.1//EN" "http://www.w3.org/Graphics/SVG/1.1/DTD/svg11.dtd">
<svg width="100%" height="100%" viewBox="0 0 141 141" version="1.1" xmlns="http://www.w3.org/2000/svg" xmlns:xlink="http://www.w3.org/1999/xlink" xml:space="preserve" xmlns:serif="http://www.serif.com/" style="fill-rule:evenodd;clip-rule:evenodd;stroke-linejoin:round;stroke-miterlimit:2;">
    <g transform="matrix(1,0,0,1,-683.107,-669.943)">
        <g transform="matrix(0.777086,-0.777086,0.777086,0.777086,-413.913,661.227)">
            <path d="M720.467,755.627L720.467,853.92L700.247,892.631L680.026,853.92L680.026,755.629L720.347,755.629C720.387,755.629 720.427,755.629 720.467,755.627Z"/>
            <path d="M720.467,733.755C720.467,730.993 718.228,728.755 715.467,728.755C707.694,728.755 692.799,728.755 685.026,728.755C682.265,728.755 680.026,730.993 680.026,733.755C680.026,739.18 680.026,747.077 680.026,747.077L720.467,747.077L720.467,733.755Z"/>
        </g>
    </g>
</svg>
