<?xml version="1.0" encoding="UTF-8" standalone="no"?>
<!DOCTYPE svg PUBLIC "-//W3C//DTD SVG 1.1//EN" "http://www.w3.org/Graphics/SVG/1.1/DTD/svg11.dtd">
<svg width="100%" height="100%" viewBox="0 0 116 145" version="1.1" xmlns="http://www.w3.org/2000/svg" xmlns:xlink="http://www.w3.org/1999/xlink" xml:space="preserve" xmlns:serif="http://www.serif.com/" style="fill-rule:evenodd;clip-rule:evenodd;stroke-linejoin:round;stroke-miterlimit:2;">
    <g transform="matrix(1,0,0,1,-511.499,-666.252)">
        <g transform="matrix(1,0,0,1,26.7436,165.137)">
            <g transform="matrix(1,0,0,0.661966,-54.5422,208.374)">
                <path d="M641.783,516.005C643.237,516.005 644.619,516.638 645.569,517.738C646.518,518.839 646.942,520.298 646.73,521.736C643.227,545.433 629.918,635.49 626.855,656.21C626.493,658.663 624.388,660.479 621.909,660.479L564.172,660.479C561.693,660.479 559.588,658.663 559.226,656.21C556.163,635.49 542.853,545.433 539.351,521.736C539.139,520.298 539.563,518.839 540.512,517.738C541.462,516.638 542.844,516.005 544.298,516.005L641.783,516.005Z"/>
            </g>
            <g transform="matrix(0.982404,0.186767,-0.186767,0.982404,61.5156,-90.241)">
                <path d="M584.769,502.589C584.664,501.89 584.609,501.168 584.609,500.43C584.609,494.298 588.387,489.319 593.04,489.319C597.694,489.319 601.472,494.298 601.472,500.43C601.472,501.168 601.417,501.89 601.312,502.589L628.855,502.589C638.742,502.589 646.757,510.604 646.757,520.491L646.757,520.493L539.297,520.493C539.297,520.493 539.297,520.492 539.297,520.491C539.297,510.604 547.312,502.589 557.199,502.589L584.769,502.589Z"/>
            </g>
            <g transform="matrix(1,0,0,1,-0.0869774,4.80166)">
                <g transform="matrix(0.974511,0.224341,-0.224341,0.974511,168.606,-106.583)">
                    <path d="M547.056,561.343C547.056,560.162 546.098,559.204 544.917,559.204L540.638,559.204C539.457,559.204 538.498,560.162 538.498,561.343L538.498,630.111C538.498,631.292 539.457,632.251 540.638,632.251L544.917,632.251C546.098,632.251 547.056,631.292 547.056,630.111L547.056,561.343Z" style="fill:white;"/>
                </g>
                <g transform="matrix(1,0,0,1,-4.1921,-0.0290127)">
                    <path d="M547.056,561.343C547.056,560.162 546.098,559.204 544.917,559.204L540.638,559.204C539.457,559.204 538.498,560.162 538.498,561.343L538.498,630.111C538.498,631.292 539.457,632.251 540.638,632.251L544.917,632.251C546.098,632.251 547.056,631.292 547.056,630.111L547.056,561.343Z" style="fill:white;"/>
                </g>
                <g transform="matrix(-0.974511,0.224341,0.224341,0.974511,908.564,-106.583)">
                    <path d="M547.056,561.343C547.056,560.162 546.098,559.204 544.917,559.204L540.638,559.204C539.457,559.204 538.498,560.162 538.498,561.343L538.498,630.111C538.498,631.292 539.457,632.251 540.638,632.251L544.917,632.251C546.098,632.251 547.056,631.292 547.056,630.111L547.056,561.343Z" style="fill:white;"/>
                </g>
            </g>
        </g>
    </g>
</svg>
